<?xml version="1.0" standalone="no"?>
<!DOCTYPE svg PUBLIC "-//W3C//DTD SVG 20010904//EN"
 "http://www.w3.org/TR/2001/REC-SVG-20010904/DTD/svg10.dtd">
<svg version="1.0" xmlns="http://www.w3.org/2000/svg"
 width="512.000000pt" height="512.000000pt" viewBox="0 0 512.000000 512.000000"
 preserveAspectRatio="xMidYMid meet">
<metadata>
Created by potrace 1.11, written by Peter Selinger 2001-2013
</metadata>
<g transform="translate(0.000000,512.000000) scale(0.100000,-0.100000)"
fill="#000000" stroke="none">
<path d="M1609 5104 c-161 -49 -267 -221 -237 -384 19 -107 97 -205 199 -251
l49 -23 1 -1770 c0 -974 2 -1793 4 -1821 6 -71 32 -184 60 -255 121 -309 380
-520 720 -588 17 -3 91 -6 165 -6 108 0 152 5 220 23 169 45 308 123 427 239
148 146 220 283 280 538 6 26 8 711 5 1840 l-4 1799 43 19 c61 26 126 81 161
135 108 172 38 401 -150 489 l-57 27 -920 2 c-774 1 -927 -1 -966 -13z m1849
-160 c36 -7 99 -64 113 -102 26 -69 2 -153 -58 -199 l-36 -28 -904 -3 c-1002
-3 -946 -6 -998 62 -67 88 -39 207 59 256 40 20 59 20 917 20 482 0 890 -3
907 -6z m-128 -1860 l0 -1353 -42 -12 c-59 -15 -171 -19 -242 -8 -200 33 -427
161 -648 365 -63 59 -149 125 -193 150 -11 6 -40 22 -65 36 -58 32 -207 83
-288 99 l-62 12 0 1027 c0 565 3 1029 5 1032 3 3 349 5 770 5 l765 0 0 -1353z
m-1405 -921 c134 -42 258 -116 370 -221 211 -198 483 -347 709 -387 77 -13
235 -14 299 0 l29 6 -5 -363 c-5 -389 -6 -407 -43 -512 -89 -257 -313 -451
-579 -502 -52 -10 -228 -11 -282 -2 -92 16 -251 84 -322 139 -137 106 -256
287 -285 434 -4 17 -9 41 -13 55 -4 14 -9 332 -10 708 l-4 683 28 -6 c15 -4
64 -18 108 -32z"/>
<path d="M2024 4092 c-31 -5 -54 -34 -58 -74 -4 -45 20 -77 64 -87 28 -5 450
-7 548 -2 44 2 76 64 59 114 -16 49 -31 51 -322 52 -148 0 -280 -1 -291 -3z"/>
<path d="M2011 3744 c-31 -14 -48 -40 -45 -71 1 -13 2 -30 3 -38 0 -8 14 -23
31 -33 25 -16 51 -18 184 -17 173 1 190 7 202 70 7 38 -7 69 -39 87 -29 16
-299 18 -336 2z"/>
<path d="M2054 3412 c-56 -8 -66 -14 -80 -47 -17 -41 -11 -76 18 -102 18 -16
44 -18 292 -20 333 -2 355 3 358 81 1 28 -5 44 -24 63 l-26 25 -259 2 c-143 0
-268 0 -279 -2z"/>
<path d="M1997 3056 c-46 -35 -39 -117 13 -143 33 -17 299 -18 334 -2 52 24
55 123 5 149 -29 16 -330 12 -352 -4z"/>
<path d="M2002 2718 c-19 -10 -34 -38 -37 -73 -2 -26 18 -63 41 -74 17 -7 117
-11 304 -11 276 0 279 0 305 23 21 17 27 32 27 62 0 30 -6 45 -27 62 -26 23
-28 23 -308 22 -182 0 -290 -4 -305 -11z"/>
<path d="M2223 1501 c-54 -34 -68 -72 -68 -191 0 -58 2 -118 5 -134 5 -31 4
-32 -70 -62 -65 -26 -147 -82 -176 -119 -49 -65 -37 -133 36 -199 42 -38 173
-106 205 -106 12 0 14 -6 9 -27 -3 -16 -8 -73 -10 -128 -3 -87 0 -106 19 -144
12 -25 34 -53 48 -64 54 -39 163 -14 264 63 34 26 67 50 73 54 6 3 42 -18 81
-47 139 -105 253 -117 308 -32 22 33 42 122 37 161 -1 11 -5 45 -8 77 -3 32
-8 63 -11 68 -4 5 7 14 22 20 139 57 232 122 251 177 33 94 -47 188 -215 253
-60 23 -61 24 -55 54 4 16 7 75 7 130 0 115 -17 164 -69 197 -63 39 -178 5
-288 -85 l-54 -44 -44 38 c-104 89 -234 129 -297 90z m158 -72 c19 -9 59 -36
88 -59 l52 -41 -52 -62 c-29 -34 -56 -66 -59 -70 -4 -4 -34 -12 -66 -17 -32
-4 -71 -11 -85 -15 -33 -8 -39 5 -46 110 -10 166 45 217 168 154z m504 7 c26
-26 38 -85 31 -156 -2 -25 -5 -56 -5 -70 -2 -44 -14 -53 -57 -41 -21 5 -59 12
-82 15 -24 2 -45 6 -46 8 -2 2 -28 33 -59 70 l-56 67 47 39 c65 54 135 89 185
91 10 1 29 -10 42 -23z m-285 -191 c18 -19 31 -38 27 -42 -10 -10 -127 -10
-127 1 0 9 52 74 61 75 3 1 20 -15 39 -34z m67 -114 c23 -1 66 -58 120 -161
27 -51 28 -57 15 -85 -33 -71 -106 -184 -122 -188 -9 -2 -65 -4 -124 -4 -126
-1 -119 -5 -190 122 -57 101 -56 103 18 225 46 76 55 86 86 90 30 4 125 5 197
1z m-317 -16 c0 -12 -63 -115 -70 -115 -10 0 -34 89 -26 97 4 4 19 9 34 11 15
2 29 5 31 8 6 6 31 5 31 -1z m523 -15 c12 0 7 -32 -12 -75 -16 -36 -19 -38
-25 -18 -4 12 -18 38 -32 58 -13 20 -22 40 -19 45 3 4 22 4 42 -1 21 -5 41 -9
46 -9z m-674 -66 c8 -26 21 -62 31 -81 16 -34 16 -36 -14 -119 -19 -50 -37
-84 -45 -84 -16 0 -148 64 -171 82 -79 66 -67 123 39 186 37 22 120 58 141 61
3 1 12 -20 19 -45z m799 31 c102 -36 201 -122 187 -164 -14 -46 -136 -130
-210 -145 -30 -6 -30 -6 -60 76 -16 46 -28 85 -27 88 1 3 14 40 29 82 16 43
30 78 33 78 3 0 25 -7 48 -15z m-652 -352 c-3 -3 -22 -2 -43 2 -21 5 -42 7
-47 6 -10 -2 -3 39 14 83 l11 30 35 -58 c19 -32 33 -61 30 -63z m527 60 l17
-42 -38 -11 c-20 -5 -48 -10 -61 -10 l-24 0 19 23 c11 12 29 39 39 59 22 42
25 41 48 -19z m-520 -131 c4 -1 16 -2 27 -2 11 0 29 -10 39 -22 10 -13 37 -45
60 -71 45 -53 46 -49 -24 -103 -85 -66 -176 -92 -208 -59 -28 27 -40 94 -33
177 4 43 9 84 12 91 5 14 31 11 127 -11z m563 -91 c5 -98 -13 -166 -48 -176
-32 -11 -89 4 -143 37 -27 17 -52 34 -55 37 -3 4 -17 16 -32 28 l-28 20 21 24
c36 41 81 96 88 107 3 6 32 14 64 17 32 4 70 10 85 14 37 11 43 -4 48 -108z
m-288 62 c-8 -10 -24 -28 -34 -40 -21 -26 -31 -28 -47 -10 -7 7 -23 25 -36 40
l-24 27 78 0 c73 0 77 -1 63 -17z"/>
<path d="M2520 1032 c-126 -56 -96 -241 39 -242 86 0 139 59 128 143 -10 76
-99 129 -167 99z"/>
</g>
</svg>
